<svg width="192" height="35" fill="none" xmlns="http://www.w3.org/2000/svg"><g clip-path="url(#clip0_311_41129)"><path fill-rule="evenodd" clip-rule="evenodd" d="M0 17.5C0 7.846 7.846 0 17.5 0S34.956 7.846 35 17.5C35 27.154 27.154 35 17.5 35S0 27.154 0 17.5zm24.014 11.296a12.21 12.21 0 002.171-1.614c2.673-2.394 4.343-5.846 4.343-9.632 0-7.182-5.846-13.028-13.028-13.028S4.472 10.368 4.472 17.55c0 3.841 1.67 7.293 4.343 9.687.668.557 1.392 1.114 2.171 1.56a12.935 12.935 0 006.514 1.725c2.394 0 4.621-.612 6.514-1.726z" fill="#D16527"/><path fill-rule="evenodd" clip-rule="evenodd" d="M16.354 15.428l-.078.027a.759.759 0 01-.275.061.724.724 0 01-.353-1.366.724.724 0 01.97.308c.221.309.089.75-.264.97zm-1.983 2.689c.396 0 .749-.309.749-.705.044-.397-.265-.75-.75-.75-.396 0-.749.309-.749.706 0 .396.309.749.705.749h.044zm1.498 2.733a.703.703 0 00.617-.353c.22-.352.088-.793-.22-1.014-.353-.22-.793-.132-1.014.22-.22.354-.132.794.22 1.015a.71.71 0 00.397.132zm3.36.027l.079-.027a.674.674 0 00.264-.97.724.724 0 00-.97-.308.724.724 0 00.353 1.366.765.765 0 00.275-.06zm-.098-5.273a.71.71 0 01-.397-.132c-.352-.22-.44-.661-.22-1.014.22-.352.661-.44 1.014-.22h.044c.353.22.44.661.22 1.014-.176.22-.44.352-.66.352zm.706 1.984c0 .397.308.75.749.75a.725.725 0 00.705-.706c0-.397-.308-.75-.705-.75-.397 0-.75.31-.75.706z" fill="#D16527"/><circle cx="17.5" cy="17.5" r="1.234" fill="#D16527"/><path fill-rule="evenodd" clip-rule="evenodd" d="M8.42 16.09l2.556 1.85c.97.706 1.366 1.94.97 2.998l-.97 2.998c-1.675-1.631-2.689-3.924-2.689-6.48 0-.441.044-.926.132-1.367zm.572 1.366a8.38 8.38 0 001.764 5.157l.352-1.102a7.262 7.262 0 01-1.146-3.482l-.97-.705v.132zm3.483-4.099H9.3a9.22 9.22 0 016.744-4.938l-.97 3.042c-.396 1.146-1.41 1.896-2.6 1.896zm-.838-.706c.793-.97 1.851-1.719 3.042-2.204l.396-1.146a8.593 8.593 0 00-4.584 3.35h1.146zm8.288-1.19l-.97-3.042a9.22 9.22 0 016.744 4.938h-3.173a2.754 2.754 0 01-2.601-1.896zm0-2.116l.352 1.102c1.19.485 2.249 1.279 3.086 2.248h1.146a8.593 8.593 0 00-4.584-3.35zm4.098 8.595l2.557-1.85.066.705.066.705a9.13 9.13 0 01-2.689 6.48l-.97-2.998c-.396-1.146 0-2.336.97-3.041zm-.132 3.571l.353 1.102a8.289 8.289 0 001.763-5.157v-.132l-.97.705a7.262 7.262 0 01-1.146 3.482zm-7.978 2.337c.926-.706 2.204-.706 3.174 0l2.512 1.851c-1.234.617-2.6.97-4.1.97a9.203 9.203 0 01-4.099-.97l2.513-1.851zm-.22.97l-.97.705c.881.308 1.807.44 2.777.485a8.36 8.36 0 002.777-.485l-.97-.706a8.11 8.11 0 01-1.807.22 8.11 8.11 0 01-1.807-.22z" fill="#D16527"/><path d="M46.56 9.2h10.536l2.568 2.592v5.88l-2.592 2.616h-7.248V26H46.56V9.2zm9.048 8.352l.84-.84v-3.936l-.84-.84h-5.784v5.616h5.784zm19.668 2.88V26h-3.264v-4.824l-1.44-1.608H65.34V26h-3.264V9.2h10.536l2.568 2.592v5.088l-1.632 1.656 1.728 1.896zM65.34 16.88h5.784l.84-.84v-3.264l-.84-.84H65.34v4.944zm12.69 6.36V11.96l2.76-2.76h8.64l2.76 2.76v11.28L89.43 26h-8.64l-2.76-2.76zm9.673-.024l1.224-1.224v-8.784l-1.224-1.224h-5.184l-1.224 1.224v8.784l1.224 1.224h5.184z" fill="#EDEDED"/><path d="M95.076 9.2H98.1l4.992 10.848h.048L108.156 9.2h3.024V26h-3.144V15.776h-.048l-3.864 7.872h-2.016l-3.84-7.872h-.048V26h-3.144V9.2zm18.978 14.04V11.96l2.76-2.76h8.64l2.76 2.76v11.28l-2.76 2.76h-8.64l-2.76-2.76zm9.672-.024l1.224-1.224v-8.784l-1.224-1.224h-5.184l-1.224 1.224v8.784l1.224 1.224h5.184zm10.838-11.256h-5.016V9.2h13.296v2.76h-5.016V26h-3.264V11.96zm9.608 11.28V11.96l2.76-2.76h8.64l2.76 2.76v11.28l-2.76 2.76h-8.64l-2.76-2.76zm9.672-.024l1.224-1.224v-8.784l-1.224-1.224h-5.184l-1.224 1.224v8.784l1.224 1.224h5.184zm20.572-2.784V26h-3.264v-4.824l-1.44-1.608h-5.232V26h-3.264V9.2h10.536l2.568 2.592v5.088l-1.632 1.656 1.728 1.896zm-9.936-3.552h5.784l.84-.84v-3.264l-.84-.84h-5.784v4.944zm12.572 6.528v-2.4h3.216v1.416l.792.792h4.968l.816-.816v-2.784l-.792-.792h-6.36l-2.592-2.592v-4.44l2.592-2.592h7.584l2.592 2.592v2.424h-3.216v-1.44l-.792-.792h-4.752l-.792.792v2.472l.792.792h6.36l2.592 2.592v4.728L187.42 26h-7.776l-2.592-2.592z" fill="#D16527"/></g><defs><clipPath id="clip0_311_41129"><path fill="#fff" d="M0 0h192v35H0z"/></clipPath></defs></svg>